<mxfile host="app.diagrams.net" modified="2023-09-07T03:38:14.549Z" agent="Mozilla/5.0 (Macintosh; Intel Mac OS X 10_15_7) AppleWebKit/605.1.15 (KHTML, like Gecko) Version/16.6 Safari/605.1.15" etag="EDME2TlZZWjpeUDGJlca" version="21.7.2" type="github">
  <diagram name="Page-1" id="74e2e168-ea6b-b213-b513-2b3c1d86103e">
    <mxGraphModel dx="798" dy="634" grid="1" gridSize="10" guides="1" tooltips="1" connect="1" arrows="1" fold="1" page="1" pageScale="1" pageWidth="1100" pageHeight="850" background="none" math="0" shadow="0">
      <root>
        <mxCell id="0" />
        <mxCell id="1" parent="0" />
        <mxCell id="yDjKqw7yzb0ghYkaqRdv-2" value="会員ID；MEMBER＿ID" style="swimlane;whiteSpace=wrap;html=1;" parent="1" vertex="1">
          <mxGeometry x="610" y="540" width="200" height="250" as="geometry" />
        </mxCell>
        <mxCell id="yDjKqw7yzb0ghYkaqRdv-6" value="パスワード：PASSWORD" style="text;strokeColor=none;fillColor=none;html=1;fontSize=12;fontStyle=1;verticalAlign=middle;align=center;" parent="yDjKqw7yzb0ghYkaqRdv-2" vertex="1">
          <mxGeometry y="30" width="180" height="20" as="geometry" />
        </mxCell>
        <mxCell id="yDjKqw7yzb0ghYkaqRdv-7" value="姓：LAST＿NAME" style="text;strokeColor=none;fillColor=none;html=1;fontSize=12;fontStyle=1;verticalAlign=middle;align=center;" parent="yDjKqw7yzb0ghYkaqRdv-2" vertex="1">
          <mxGeometry x="-20" y="50" width="180" height="20" as="geometry" />
        </mxCell>
        <mxCell id="yDjKqw7yzb0ghYkaqRdv-8" value="&amp;nbsp;名：FIRST＿NAME" style="text;strokeColor=none;fillColor=none;html=1;fontSize=12;fontStyle=1;verticalAlign=middle;align=center;" parent="yDjKqw7yzb0ghYkaqRdv-2" vertex="1">
          <mxGeometry x="-20" y="70" width="180" height="20" as="geometry" />
        </mxCell>
        <mxCell id="yDjKqw7yzb0ghYkaqRdv-9" value="　 郵便番号：POST＿CODE" style="text;strokeColor=none;fillColor=none;html=1;fontSize=12;fontStyle=1;verticalAlign=middle;align=center;" parent="yDjKqw7yzb0ghYkaqRdv-2" vertex="1">
          <mxGeometry x="-10" y="90" width="180" height="20" as="geometry" />
        </mxCell>
        <mxCell id="yDjKqw7yzb0ghYkaqRdv-10" value="　住所：ADDRESS" style="text;strokeColor=none;fillColor=none;html=1;fontSize=12;fontStyle=1;verticalAlign=middle;align=center;" parent="yDjKqw7yzb0ghYkaqRdv-2" vertex="1">
          <mxGeometry x="-30" y="110" width="180" height="20" as="geometry" />
        </mxCell>
        <mxCell id="yDjKqw7yzb0ghYkaqRdv-69" value="　　　生年月日：BIRTHDAY" style="text;strokeColor=none;fillColor=none;html=1;fontSize=12;fontStyle=1;verticalAlign=middle;align=center;" parent="yDjKqw7yzb0ghYkaqRdv-2" vertex="1">
          <mxGeometry x="-30" y="130" width="180" height="20" as="geometry" />
        </mxCell>
        <mxCell id="yDjKqw7yzb0ghYkaqRdv-70" value="　　電話番号：TEL＿NO" style="text;strokeColor=none;fillColor=none;html=1;fontSize=12;fontStyle=1;verticalAlign=middle;align=center;" parent="yDjKqw7yzb0ghYkaqRdv-2" vertex="1">
          <mxGeometry x="-30" y="150" width="180" height="20" as="geometry" />
        </mxCell>
        <mxCell id="yDjKqw7yzb0ghYkaqRdv-71" value="メールアドレス：MAIL" style="text;strokeColor=none;fillColor=none;html=1;fontSize=12;fontStyle=1;verticalAlign=middle;align=center;" parent="yDjKqw7yzb0ghYkaqRdv-2" vertex="1">
          <mxGeometry x="-10" y="170" width="180" height="20" as="geometry" />
        </mxCell>
        <mxCell id="yDjKqw7yzb0ghYkaqRdv-72" value="登録日時：REGIST_DATE" style="text;strokeColor=none;fillColor=none;html=1;fontSize=12;fontStyle=1;verticalAlign=middle;align=center;" parent="yDjKqw7yzb0ghYkaqRdv-2" vertex="1">
          <mxGeometry y="190" width="180" height="20" as="geometry" />
        </mxCell>
        <mxCell id="yDjKqw7yzb0ghYkaqRdv-73" value="　会員区分：MEMBER＿TYPE" style="text;strokeColor=none;fillColor=none;html=1;fontSize=12;fontStyle=1;verticalAlign=middle;align=center;" parent="yDjKqw7yzb0ghYkaqRdv-2" vertex="1">
          <mxGeometry y="210" width="180" height="20" as="geometry" />
        </mxCell>
        <mxCell id="yDjKqw7yzb0ghYkaqRdv-3" value="会員: MEMBER" style="text;strokeColor=none;fillColor=none;html=1;fontSize=20;fontStyle=1;verticalAlign=middle;align=center;" parent="1" vertex="1">
          <mxGeometry x="620" y="480" width="200" height="40" as="geometry" />
        </mxCell>
        <mxCell id="yDjKqw7yzb0ghYkaqRdv-76" value="" style="swimlane;strokeColor=default;perimeterSpacing=0;strokeWidth=1;swimlaneLine=1;glass=0;shadow=0;startSize=60;" parent="1" vertex="1">
          <mxGeometry x="601.25" y="50" width="200" height="270" as="geometry" />
        </mxCell>
        <mxCell id="6Mnsdf7yAfQ03zAd6nEP-5" value="TICKET_PRICE" style="text;strokeColor=none;fillColor=none;html=1;fontSize=12;fontStyle=1;verticalAlign=middle;align=center;" parent="yDjKqw7yzb0ghYkaqRdv-76" vertex="1">
          <mxGeometry x="-30" y="130" width="180" height="20" as="geometry" />
        </mxCell>
        <mxCell id="6Mnsdf7yAfQ03zAd6nEP-6" value="BUS_ID" style="text;strokeColor=none;fillColor=none;html=1;fontSize=12;fontStyle=1;verticalAlign=middle;align=center;" parent="yDjKqw7yzb0ghYkaqRdv-76" vertex="1">
          <mxGeometry x="-50" y="160" width="180" height="20" as="geometry" />
        </mxCell>
        <mxCell id="6Mnsdf7yAfQ03zAd6nEP-7" value="EXPIRED_DATE" style="text;strokeColor=none;fillColor=none;html=1;fontSize=12;fontStyle=1;verticalAlign=middle;align=center;" parent="yDjKqw7yzb0ghYkaqRdv-76" vertex="1">
          <mxGeometry x="-30" y="190" width="180" height="20" as="geometry" />
        </mxCell>
        <mxCell id="6Mnsdf7yAfQ03zAd6nEP-16" value="会員ID；MEMBER＿ID" style="text;strokeColor=none;fillColor=none;html=1;fontSize=12;fontStyle=1;verticalAlign=middle;align=center;" parent="yDjKqw7yzb0ghYkaqRdv-76" vertex="1">
          <mxGeometry x="-10" y="70" width="180" height="20" as="geometry" />
        </mxCell>
        <mxCell id="6Mnsdf7yAfQ03zAd6nEP-26" value="SEAT" style="text;strokeColor=none;fillColor=none;html=1;fontSize=12;fontStyle=1;verticalAlign=middle;align=center;" parent="yDjKqw7yzb0ghYkaqRdv-76" vertex="1">
          <mxGeometry x="-60" y="100" width="190" height="20" as="geometry" />
        </mxCell>
        <mxCell id="k_bStmXS0Wy6511A6Ppj-48" value="TICKET_ID" style="text;strokeColor=none;fillColor=none;html=1;fontSize=12;fontStyle=1;verticalAlign=middle;align=center;" parent="yDjKqw7yzb0ghYkaqRdv-76" vertex="1">
          <mxGeometry x="-13.75" y="40" width="130" height="20" as="geometry" />
        </mxCell>
        <mxCell id="k_bStmXS0Wy6511A6Ppj-85" value="ORDER_ID" style="text;strokeColor=none;fillColor=none;html=1;fontSize=12;fontStyle=1;verticalAlign=middle;align=center;" parent="yDjKqw7yzb0ghYkaqRdv-76" vertex="1">
          <mxGeometry width="102.5" height="40" as="geometry" />
        </mxCell>
        <mxCell id="6Mnsdf7yAfQ03zAd6nEP-11" value="SEAT" style="text;strokeColor=none;fillColor=none;html=1;fontSize=12;fontStyle=1;verticalAlign=middle;align=center;" parent="yDjKqw7yzb0ghYkaqRdv-76" vertex="1">
          <mxGeometry x="-61.25" y="220" width="190" height="20" as="geometry" />
        </mxCell>
        <mxCell id="6Mnsdf7yAfQ03zAd6nEP-9" value="TICKET_STATUS" style="text;strokeColor=none;fillColor=none;html=1;fontSize=24;fontStyle=1;verticalAlign=middle;align=center;" parent="1" vertex="1">
          <mxGeometry x="601.25" width="200" height="40" as="geometry" />
        </mxCell>
        <mxCell id="6Mnsdf7yAfQ03zAd6nEP-10" value="       BUS_ID" style="swimlane;startSize=60;align=left;" parent="1" vertex="1">
          <mxGeometry x="1030" y="110" width="200" height="170" as="geometry" />
        </mxCell>
        <mxCell id="6Mnsdf7yAfQ03zAd6nEP-12" value="DEPART_TIME" style="text;strokeColor=none;fillColor=none;html=1;fontSize=12;fontStyle=1;verticalAlign=middle;align=center;" parent="6Mnsdf7yAfQ03zAd6nEP-10" vertex="1">
          <mxGeometry x="-35" y="70" width="180" height="20" as="geometry" />
        </mxCell>
        <mxCell id="6Mnsdf7yAfQ03zAd6nEP-13" value="DEPART_DATE" style="text;strokeColor=none;fillColor=none;html=1;fontSize=12;fontStyle=1;verticalAlign=middle;align=center;" parent="6Mnsdf7yAfQ03zAd6nEP-10" vertex="1">
          <mxGeometry x="-35" y="90" width="180" height="20" as="geometry" />
        </mxCell>
        <mxCell id="UGFwMmbldTLrsSRiIsaC-10" value="TOTAL SEAT" style="text;strokeColor=none;fillColor=none;html=1;fontSize=12;fontStyle=1;verticalAlign=middle;align=center;" parent="6Mnsdf7yAfQ03zAd6nEP-10" vertex="1">
          <mxGeometry x="-35" y="120" width="180" height="20" as="geometry" />
        </mxCell>
        <mxCell id="6Mnsdf7yAfQ03zAd6nEP-15" value="BUS" style="text;strokeColor=none;fillColor=none;html=1;fontSize=24;fontStyle=1;verticalAlign=middle;align=center;" parent="1" vertex="1">
          <mxGeometry x="1030" y="50" width="200" height="40" as="geometry" />
        </mxCell>
        <mxCell id="6Mnsdf7yAfQ03zAd6nEP-19" value="ROUTE_ID" style="swimlane;" parent="1" vertex="1">
          <mxGeometry x="1050" y="420" width="200" height="150" as="geometry" />
        </mxCell>
        <mxCell id="6Mnsdf7yAfQ03zAd6nEP-20" value="START_LOCATION" style="text;strokeColor=none;fillColor=none;html=1;fontSize=12;fontStyle=1;verticalAlign=middle;align=center;" parent="6Mnsdf7yAfQ03zAd6nEP-19" vertex="1">
          <mxGeometry x="-20" y="40" width="190" height="20" as="geometry" />
        </mxCell>
        <mxCell id="6Mnsdf7yAfQ03zAd6nEP-21" value="END_LOCATION" style="text;strokeColor=none;fillColor=none;html=1;fontSize=12;fontStyle=1;verticalAlign=middle;align=center;" parent="6Mnsdf7yAfQ03zAd6nEP-19" vertex="1">
          <mxGeometry x="-30" y="60" width="195" height="20" as="geometry" />
        </mxCell>
        <mxCell id="6Mnsdf7yAfQ03zAd6nEP-22" value="ROUTE_TIME" style="text;strokeColor=none;fillColor=none;html=1;fontSize=12;fontStyle=1;verticalAlign=middle;align=center;" parent="6Mnsdf7yAfQ03zAd6nEP-19" vertex="1">
          <mxGeometry x="-30" y="80" width="180" height="20" as="geometry" />
        </mxCell>
        <mxCell id="6Mnsdf7yAfQ03zAd6nEP-23" value="BUS_ID" style="text;strokeColor=none;fillColor=none;html=1;fontSize=12;fontStyle=1;verticalAlign=middle;align=center;" parent="6Mnsdf7yAfQ03zAd6nEP-19" vertex="1">
          <mxGeometry x="-50" y="110" width="250" height="20" as="geometry" />
        </mxCell>
        <mxCell id="6Mnsdf7yAfQ03zAd6nEP-25" value="ROUTE" style="text;strokeColor=none;fillColor=none;html=1;fontSize=24;fontStyle=1;verticalAlign=middle;align=center;" parent="1" vertex="1">
          <mxGeometry x="1050" y="360" width="200" height="40" as="geometry" />
        </mxCell>
        <mxCell id="UGFwMmbldTLrsSRiIsaC-1" value="ORDER_ID" style="swimlane;whiteSpace=wrap;html=1;" parent="1" vertex="1">
          <mxGeometry x="270" y="410" width="200" height="160" as="geometry" />
        </mxCell>
        <mxCell id="UGFwMmbldTLrsSRiIsaC-2" value="MEMBER_ID" style="text;strokeColor=none;fillColor=none;html=1;fontSize=12;fontStyle=1;verticalAlign=middle;align=center;" parent="UGFwMmbldTLrsSRiIsaC-1" vertex="1">
          <mxGeometry x="-30" y="30" width="210" height="20" as="geometry" />
        </mxCell>
        <mxCell id="UGFwMmbldTLrsSRiIsaC-5" value="ORDER_DATETIME" style="text;strokeColor=none;fillColor=none;html=1;fontSize=12;fontStyle=1;verticalAlign=middle;align=center;" parent="UGFwMmbldTLrsSRiIsaC-1" vertex="1">
          <mxGeometry y="60" width="190" height="20" as="geometry" />
        </mxCell>
        <mxCell id="UGFwMmbldTLrsSRiIsaC-6" value="PAYMENT_TYPE" style="text;strokeColor=none;fillColor=none;html=1;fontSize=12;fontStyle=1;verticalAlign=middle;align=center;" parent="UGFwMmbldTLrsSRiIsaC-1" vertex="1">
          <mxGeometry x="-10" y="90" width="200" height="20" as="geometry" />
        </mxCell>
        <mxCell id="k_bStmXS0Wy6511A6Ppj-39" value="MEMBER_CARD_ID" style="text;strokeColor=none;fillColor=none;html=1;fontSize=12;fontStyle=1;verticalAlign=middle;align=center;" parent="UGFwMmbldTLrsSRiIsaC-1" vertex="1">
          <mxGeometry x="10" y="120" width="180" height="20" as="geometry" />
        </mxCell>
        <mxCell id="UGFwMmbldTLrsSRiIsaC-12" value="ORDER_HEADER" style="text;strokeColor=none;fillColor=none;html=1;fontSize=20;fontStyle=1;verticalAlign=middle;align=center;" parent="1" vertex="1">
          <mxGeometry x="270" y="360" width="200" height="40" as="geometry" />
        </mxCell>
        <mxCell id="k_bStmXS0Wy6511A6Ppj-86" value="" style="edgeStyle=orthogonalEdgeStyle;rounded=0;orthogonalLoop=1;jettySize=auto;html=1;endArrow=ERzeroToMany;endFill=0;startArrow=ERzeroToOne;startFill=0;" parent="1" source="k_bStmXS0Wy6511A6Ppj-1" edge="1">
          <mxGeometry relative="1" as="geometry">
            <mxPoint x="600" y="70" as="targetPoint" />
            <Array as="points">
              <mxPoint x="510" y="270" />
              <mxPoint x="510" y="260" />
              <mxPoint x="530" y="260" />
              <mxPoint x="530" y="90" />
              <mxPoint x="550" y="90" />
            </Array>
          </mxGeometry>
        </mxCell>
        <mxCell id="k_bStmXS0Wy6511A6Ppj-88" value="" style="edgeStyle=orthogonalEdgeStyle;rounded=0;orthogonalLoop=1;jettySize=auto;html=1;exitX=0.994;exitY=0.152;exitDx=0;exitDy=0;exitPerimeter=0;endArrow=none;endFill=0;startArrow=ERzeroToOne;startFill=0;" parent="1" source="k_bStmXS0Wy6511A6Ppj-1" edge="1">
          <mxGeometry relative="1" as="geometry">
            <mxPoint x="510" y="260" as="targetPoint" />
          </mxGeometry>
        </mxCell>
        <mxCell id="k_bStmXS0Wy6511A6Ppj-1" value="" style="swimlane;whiteSpace=wrap;html=1;startSize=70;align=center;spacing=-6;spacingTop=7;shadow=0;" parent="1" vertex="1">
          <mxGeometry x="260" y="220" width="220" height="130" as="geometry">
            <mxRectangle x="10" y="420" width="100" height="30" as="alternateBounds" />
          </mxGeometry>
        </mxCell>
        <mxCell id="k_bStmXS0Wy6511A6Ppj-3" value="TICKET_NUM" style="text;strokeColor=none;fillColor=none;html=1;fontSize=12;fontStyle=1;verticalAlign=middle;align=center;" parent="k_bStmXS0Wy6511A6Ppj-1" vertex="1">
          <mxGeometry y="90" width="180" height="20" as="geometry" />
        </mxCell>
        <mxCell id="k_bStmXS0Wy6511A6Ppj-51" value="ORDER_ID" style="text;strokeColor=none;fillColor=none;html=1;fontSize=12;fontStyle=1;verticalAlign=middle;align=center;" parent="k_bStmXS0Wy6511A6Ppj-1" vertex="1">
          <mxGeometry x="28.75" width="102.5" height="40" as="geometry" />
        </mxCell>
        <mxCell id="k_bStmXS0Wy6511A6Ppj-2" value="TICKET_ID" style="text;strokeColor=none;fillColor=none;html=1;fontSize=12;fontStyle=1;verticalAlign=middle;align=center;" parent="k_bStmXS0Wy6511A6Ppj-1" vertex="1">
          <mxGeometry x="-10" y="40" width="180" height="20" as="geometry" />
        </mxCell>
        <mxCell id="k_bStmXS0Wy6511A6Ppj-5" value="ORDER_DETAIL" style="text;strokeColor=none;fillColor=none;html=1;fontSize=20;fontStyle=1;verticalAlign=middle;align=center;" parent="1" vertex="1">
          <mxGeometry x="260" y="180" width="200" height="40" as="geometry" />
        </mxCell>
        <mxCell id="k_bStmXS0Wy6511A6Ppj-17" value="" style="edgeStyle=orthogonalEdgeStyle;rounded=0;orthogonalLoop=1;jettySize=auto;html=1;entryX=1;entryY=0.25;entryDx=0;entryDy=0;endArrow=ERzeroToMany;endFill=0;startArrow=none;startFill=0;" parent="1" target="UGFwMmbldTLrsSRiIsaC-1" edge="1">
          <mxGeometry relative="1" as="geometry">
            <mxPoint x="520" y="570" as="sourcePoint" />
            <mxPoint x="500" y="450" as="targetPoint" />
            <Array as="points">
              <mxPoint x="520" y="450" />
            </Array>
          </mxGeometry>
        </mxCell>
        <mxCell id="k_bStmXS0Wy6511A6Ppj-18" value="MEMBER_CARD" style="text;strokeColor=none;fillColor=none;html=1;fontSize=20;fontStyle=1;verticalAlign=middle;align=center;" parent="1" vertex="1">
          <mxGeometry x="260" y="600" width="200" height="40" as="geometry" />
        </mxCell>
        <mxCell id="k_bStmXS0Wy6511A6Ppj-19" value="会員ID；MEMBER＿ID" style="swimlane;whiteSpace=wrap;html=1;" parent="1" vertex="1">
          <mxGeometry x="260" y="650" width="200" height="150" as="geometry" />
        </mxCell>
        <mxCell id="k_bStmXS0Wy6511A6Ppj-20" value="MEMBER_CARD_ID" style="text;strokeColor=none;fillColor=none;html=1;fontSize=12;fontStyle=1;verticalAlign=middle;align=center;" parent="k_bStmXS0Wy6511A6Ppj-19" vertex="1">
          <mxGeometry y="30" width="180" height="20" as="geometry" />
        </mxCell>
        <mxCell id="k_bStmXS0Wy6511A6Ppj-21" value="CARD_COMPANY_ID" style="text;strokeColor=none;fillColor=none;html=1;fontSize=12;fontStyle=1;verticalAlign=middle;align=center;" parent="k_bStmXS0Wy6511A6Ppj-19" vertex="1">
          <mxGeometry x="-15" y="50" width="215" height="20" as="geometry" />
        </mxCell>
        <mxCell id="k_bStmXS0Wy6511A6Ppj-22" value="CARD_NUMBER" style="text;strokeColor=none;fillColor=none;html=1;fontSize=12;fontStyle=1;verticalAlign=middle;align=center;" parent="k_bStmXS0Wy6511A6Ppj-19" vertex="1">
          <mxGeometry x="-20" y="70" width="200" height="20" as="geometry" />
        </mxCell>
        <mxCell id="k_bStmXS0Wy6511A6Ppj-23" value="EXPIRED_YEAR" style="text;strokeColor=none;fillColor=none;html=1;fontSize=12;fontStyle=1;verticalAlign=middle;align=center;" parent="k_bStmXS0Wy6511A6Ppj-19" vertex="1">
          <mxGeometry x="-10" y="90" width="180" height="20" as="geometry" />
        </mxCell>
        <mxCell id="k_bStmXS0Wy6511A6Ppj-24" value="EXPIRED_DATE" style="text;strokeColor=none;fillColor=none;html=1;fontSize=12;fontStyle=1;verticalAlign=middle;align=center;" parent="k_bStmXS0Wy6511A6Ppj-19" vertex="1">
          <mxGeometry x="-30" y="110" width="220" height="20" as="geometry" />
        </mxCell>
        <mxCell id="k_bStmXS0Wy6511A6Ppj-30" value="CARD_COMPANY_ID" style="swimlane;whiteSpace=wrap;html=1;" parent="1" vertex="1">
          <mxGeometry x="260" y="900" width="200" height="80" as="geometry" />
        </mxCell>
        <mxCell id="k_bStmXS0Wy6511A6Ppj-31" value="CARD_COMPANY_NAME" style="text;strokeColor=none;fillColor=none;html=1;fontSize=12;fontStyle=1;verticalAlign=middle;align=center;" parent="k_bStmXS0Wy6511A6Ppj-30" vertex="1">
          <mxGeometry y="30" width="180" height="20" as="geometry" />
        </mxCell>
        <mxCell id="k_bStmXS0Wy6511A6Ppj-43" value="PREFECTURE" style="text;strokeColor=none;fillColor=none;html=1;fontSize=12;fontStyle=1;verticalAlign=middle;align=center;" parent="k_bStmXS0Wy6511A6Ppj-30" vertex="1">
          <mxGeometry x="-45" y="50" width="215" height="20" as="geometry" />
        </mxCell>
        <mxCell id="k_bStmXS0Wy6511A6Ppj-36" value="CARD_COMPANY" style="text;strokeColor=none;fillColor=none;html=1;fontSize=20;fontStyle=1;verticalAlign=middle;align=center;" parent="1" vertex="1">
          <mxGeometry x="250" y="860" width="200" height="40" as="geometry" />
        </mxCell>
        <mxCell id="k_bStmXS0Wy6511A6Ppj-38" value="" style="edgeStyle=orthogonalEdgeStyle;rounded=0;orthogonalLoop=1;jettySize=auto;html=1;entryX=1.001;entryY=0.092;entryDx=0;entryDy=0;entryPerimeter=0;endArrow=ERzeroToMany;endFill=0;startArrow=ERmandOne;startFill=0;" parent="1" target="k_bStmXS0Wy6511A6Ppj-19" edge="1">
          <mxGeometry relative="1" as="geometry">
            <mxPoint x="610" y="560" as="sourcePoint" />
            <mxPoint x="520" y="740" as="targetPoint" />
            <Array as="points">
              <mxPoint x="520" y="560" />
              <mxPoint x="520" y="664" />
            </Array>
          </mxGeometry>
        </mxCell>
        <mxCell id="k_bStmXS0Wy6511A6Ppj-41" value="" style="edgeStyle=elbowEdgeStyle;rounded=0;orthogonalLoop=1;jettySize=auto;html=1;entryX=0;entryY=0.75;entryDx=0;entryDy=0;exitX=0;exitY=0.5;exitDx=0;exitDy=0;endArrow=ERzeroToMany;endFill=0;startArrow=ERzeroToOne;startFill=0;" parent="1" source="k_bStmXS0Wy6511A6Ppj-20" edge="1">
          <mxGeometry relative="1" as="geometry">
            <mxPoint x="260" y="700" as="sourcePoint" />
            <mxPoint x="270" y="540" as="targetPoint" />
            <Array as="points">
              <mxPoint x="215" y="640" />
              <mxPoint x="210" y="540" />
              <mxPoint x="210" y="540" />
            </Array>
          </mxGeometry>
        </mxCell>
        <mxCell id="k_bStmXS0Wy6511A6Ppj-42" value="" style="edgeStyle=orthogonalEdgeStyle;rounded=0;orthogonalLoop=1;jettySize=auto;html=1;entryX=0;entryY=0.5;entryDx=0;entryDy=0;endArrow=ERzeroToMany;endFill=0;startArrow=ERmandOne;startFill=0;exitX=-0.015;exitY=0.137;exitDx=0;exitDy=0;exitPerimeter=0;" parent="1" source="k_bStmXS0Wy6511A6Ppj-30" edge="1">
          <mxGeometry relative="1" as="geometry">
            <mxPoint x="100" y="910" as="sourcePoint" />
            <mxPoint x="255" y="710" as="targetPoint" />
            <Array as="points">
              <mxPoint x="100" y="911" />
              <mxPoint x="100" y="710" />
            </Array>
          </mxGeometry>
        </mxCell>
        <mxCell id="k_bStmXS0Wy6511A6Ppj-47" value="" style="edgeStyle=orthogonalEdgeStyle;rounded=0;orthogonalLoop=1;jettySize=auto;html=1;endArrow=ERoneToMany;endFill=0;startArrow=ERmandOne;startFill=0;" parent="1" edge="1">
          <mxGeometry relative="1" as="geometry">
            <mxPoint x="260" y="420" as="sourcePoint" />
            <mxPoint x="260" y="240" as="targetPoint" />
            <Array as="points">
              <mxPoint x="160" y="420" />
              <mxPoint x="160" y="240" />
            </Array>
          </mxGeometry>
        </mxCell>
        <mxCell id="k_bStmXS0Wy6511A6Ppj-50" value="" style="whiteSpace=wrap;html=1;aspect=fixed;" parent="1" vertex="1">
          <mxGeometry x="270" y="280" as="geometry" />
        </mxCell>
        <mxCell id="YbRBSELIIwwX9QAz6zUv-2" value="" style="edgeStyle=orthogonalEdgeStyle;rounded=0;orthogonalLoop=1;jettySize=auto;html=1;endArrow=ERzeroToMany;endFill=0;" edge="1" parent="1">
          <mxGeometry relative="1" as="geometry">
            <mxPoint x="550" y="90" as="sourcePoint" />
            <mxPoint x="600" y="100" as="targetPoint" />
            <Array as="points">
              <mxPoint x="550" y="100" />
            </Array>
          </mxGeometry>
        </mxCell>
        <mxCell id="YbRBSELIIwwX9QAz6zUv-9" value="" style="edgeStyle=entityRelationEdgeStyle;fontSize=12;html=1;endArrow=ERmandOne;startArrow=ERmandOne;rounded=0;entryX=-0.018;entryY=0.133;entryDx=0;entryDy=0;entryPerimeter=0;startFill=0;endFill=0;" edge="1" parent="1" target="6Mnsdf7yAfQ03zAd6nEP-10">
          <mxGeometry width="100" height="100" relative="1" as="geometry">
            <mxPoint x="801.25" y="220" as="sourcePoint" />
            <mxPoint x="901.25" y="120" as="targetPoint" />
          </mxGeometry>
        </mxCell>
        <mxCell id="YbRBSELIIwwX9QAz6zUv-10" value="" style="edgeStyle=entityRelationEdgeStyle;fontSize=12;html=1;endArrow=ERoneToMany;startArrow=ERmandOne;rounded=0;endFill=0;exitX=1.012;exitY=0.145;exitDx=0;exitDy=0;exitPerimeter=0;startFill=0;" edge="1" parent="1" source="6Mnsdf7yAfQ03zAd6nEP-10" target="6Mnsdf7yAfQ03zAd6nEP-23">
          <mxGeometry width="100" height="100" relative="1" as="geometry">
            <mxPoint x="1393" y="140" as="sourcePoint" />
            <mxPoint x="1330" y="532.6599999999999" as="targetPoint" />
            <Array as="points">
              <mxPoint x="1280" y="330" />
            </Array>
          </mxGeometry>
        </mxCell>
      </root>
    </mxGraphModel>
  </diagram>
</mxfile>
